# xmcd
#
# Track frame offsets:
#	182
#	12597
#	26745
#	36957
#	46260
#	60060
#	73010
#	82935
#	98080
#	117585
#	128422
#	141727
#
# Disc length: 2033 seconds
#
# Revision: 2
# Processed by: cddbd v1.5.2PL0 Copyright (c) Steve Scherf et al.
# Submitted via: audiograbber 1.83.01
#
DISCID=9f07ef0c
DTITLE=Roy Clark - The Best Of Roy Clark
DYEAR=1990
DGENRE=Country
TTITLE0=The Tips Of My Fingers
TTITLE1=Faded Love
TTITLE2=Sally Was A Good Old Girl
TTITLE3=Silver Threads And Golden Needles
TTITLE4=When The Wind Blows In Chicago
TTITLE5=Through The Eyes Of A Fool
TTITLE6=Take Me As I Am (Or Let Me Go)
TTITLE7=He'll Have To Go
TTITLE8=Malaguena
TTITLE9=Happy To Be Unhappy
TTITLE10=You Took Her Off My Hands (Now Take Her Off My Mind)
TTITLE11=Just A Closer Walk With Thee
EXTD=
EXTT0=Yesterday: 02.01.1998
EXTT1=Yesterday: 20.02.1998
EXTT2=
EXTT3=
EXTT4=
EXTT5=
EXTT6=
EXTT7=
EXTT8=
EXTT9=
EXTT10=
EXTT11=Yesterday: 06.03.1998
PLAYORDER=
